HIERARCHY
ROOT Hips
{
 OFFSET 0.000000 0.000000 0.000000
 CHANNELS 6 Xposition Yposition Zposition Yrotation Xrotation Zrotation
 JOINT Chest
 {
  OFFSET 0.000000 9.581000 -0.001100
  CHANNELS 3 Yrotation Xrotation Zrotation
  JOINT Chest2
  {
   OFFSET 0.000000 9.561100 0.002200
   CHANNELS 3 Yrotation Xrotation Zrotation
   JOINT Chest3
   {
    OFFSET 0.000000 9.521100 0.000000
    CHANNELS 3 Yrotation Xrotation Zrotation
    JOINT Chest4
    {
     OFFSET 0.000000 9.511400 0.000000
     CHANNELS 3 Yrotation Xrotation Zrotation
     JOINT Neck
     {
      OFFSET 0.000000 14.375100 0.000000
      CHANNELS 3 Yrotation Xrotation Zrotation
      JOINT Head
      {
       OFFSET 0.000000 8.901200 0.004600
       CHANNELS 3 Yrotation Xrotation Zrotation
       End Site
       {
        OFFSET 0.000000 16.962200 0.002400
       }
      }
     }
     JOINT RightCollar
     {
      OFFSET -2.920100 9.518800 0.000000
      CHANNELS 3 Yrotation Xrotation Zrotation
      JOINT RightShoulder
      {
       OFFSET -13.664500 0.000000 0.000000
       CHANNELS 3 Yrotation Xrotation Zrotation
       JOINT RightElbow
       {
        OFFSET 0.000000 -29.999200 0.000000
        CHANNELS 3 Yrotation Xrotation Zrotation
        JOINT RightWrist
        {
         OFFSET 0.000000 -24.253600 0.000000
         CHANNELS 3 Yrotation Xrotation Zrotation
         End Site
         {
          OFFSET 0.000000 -17.918900 0.000000
         }
        }
       }
      }
     }
     JOINT LeftCollar
     {
      OFFSET 2.920100 9.518800 0.000000
      CHANNELS 3 Yrotation Xrotation Zrotation
      JOINT LeftShoulder
      {
       OFFSET 13.664500 0.000000 0.000000
       CHANNELS 3 Yrotation Xrotation Zrotation
       JOINT LeftElbow
       {
        OFFSET 0.000000 -29.999200 0.000000
        CHANNELS 3 Yrotation Xrotation Zrotation
        JOINT LeftWrist
        {
         OFFSET 0.000000 -24.253600 0.000000
         CHANNELS 3 Yrotation Xrotation Zrotation
         End Site
         {
          OFFSET 0.000000 -17.918900 0.000000
         }
        }
       }
      }
     }
    }
   }
  }
 }
 JOINT RightHip
 {
  OFFSET -7.797300 0.005300 0.000500
  CHANNELS 3 Yrotation Xrotation Zrotation
  JOINT RightKnee
  {
   OFFSET 0.000000 -40.663400 -0.000500
   CHANNELS 3 Yrotation Xrotation Zrotation
   JOINT RightAnkle
   {
    OFFSET 0.000000 -39.523700 -0.000900
    CHANNELS 3 Yrotation Xrotation Zrotation
    JOINT RightToe
    {
     OFFSET 0.000000 -6.418000 14.485300
     CHANNELS 3 Yrotation Xrotation Zrotation
     End Site
     {
      OFFSET 0.000000 -1.465200 6.326400
     }
    }
   }
  }
 }
 JOINT LeftHip
 {
  OFFSET 7.797300 0.005300 0.000500
  CHANNELS 3 Yrotation Xrotation Zrotation
  JOINT LeftKnee
  {
   OFFSET 0.000000 -40.663400 -0.000500
   CHANNELS 3 Yrotation Xrotation Zrotation
   JOINT LeftAnkle
   {
    OFFSET 0.000000 -39.523700 -0.000900
    CHANNELS 3 Yrotation Xrotation Zrotation
    JOINT LeftToe
    {
     OFFSET 0.000000 -6.418000 14.485300
     CHANNELS 3 Yrotation Xrotation Zrotation
     End Site
     {
      OFFSET 0.000000 -1.465200 6.326400
     }
    }
   }
  }
 }
}
MOTION
Frames: 5
Frame Time: 0.008333
-13.238328 126.913124 30.482043 -159.912256 -50.044487 -2.868541 -4.101352 26.501154 -1.160530 -0.655127 4.501424 -0.059117 -1.028663 7.159874 -0.117063 -3.278792 21.677805 -0.789324 -3.692310 17.961102 -0.193927 -3.888161 -6.808680 0.648686 1.423021 4.023154 1.589234 2.826440 -13.150864 -10.688797 -97.680440 -66.676643 146.694888 9.232204 12.217548 -0.725919 -8.972259 -0.982277 -1.201384 -10.903726 -8.659157 15.015533 64.454890 -62.021227 -110.880970 -3.367731 -12.761589 23.488059 -6.409321 -22.949771 -11.392197 -14.202580 78.874097 -15.735314 9.756964 -15.722443 3.730122 -0.003387 -0.003816 -0.001501 3.964177 5.031261 -2.242252 129.571383 64.876757 147.796484 10.581468 11.147186 3.796770 -0.001493 0.017287 -0.000661
-13.237729 126.913091 30.481833 -159.920628 -50.042423 -2.866041 -4.083736 26.511317 -1.150681 -0.621297 4.544397 -0.058782 -1.017042 7.177789 -0.113154 -3.283486 21.657760 -0.774089 -3.656065 17.890671 -0.198398 -3.879201 -6.873353 0.652304 1.386862 3.965745 1.590179 2.816271 -13.035904 -10.604477 -97.617303 -66.695666 146.665035 9.214234 12.206819 -0.937810 -9.014256 -1.033013 -1.154997 -10.886375 -8.650437 14.981856 64.359250 -62.053671 -110.761853 -3.363036 -12.735722 23.488134 -6.414537 -22.958281 -11.386675 -14.194626 78.884118 -15.732767 9.782329 -15.722394 3.724287 0.000315 -0.004492 0.000139 3.970249 5.027426 -2.237762 129.570469 64.874182 147.791138 10.584528 11.151380 3.802334 -0.003445 0.015274 -0.001527
-13.237726 126.912509 30.482301 -159.915738 -50.035665 -2.869908 -4.068324 26.524463 -1.143457 -0.617523 4.549463 -0.059497 -1.011771 7.186736 -0.111325 -3.256110 21.671495 -0.761302 -3.639721 17.829247 -0.200226 -3.895378 -6.897615 0.667928 1.346331 3.912518 1.591015 2.822384 -12.923386 -10.525606 -97.567673 -66.718976 146.634663 9.194200 12.200545 -1.150245 -9.049137 -1.078612 -1.111299 -10.878637 -8.639631 14.949907 64.264034 -62.082225 -110.646795 -3.357873 -12.750214 23.466474 -6.425784 -22.967102 -11.378902 -14.215225 78.886959 -15.758261 9.774449 -15.723516 3.727629 -0.001822 -0.003687 -0.000807 3.964762 5.020392 -2.237276 129.574045 64.872154 147.789141 10.547099 11.108080 3.915528 0.000877 -0.003738 0.000388
-13.237316 126.912107 30.482495 -159.910194 -50.029957 -2.877737 -4.050321 26.537622 -1.134190 -0.616190 4.555319 -0.058358 -1.007455 7.195554 -0.109975 -3.235475 21.683768 -0.754169 -3.616958 17.769753 -0.200413 -3.907814 -6.921697 0.683151 1.319512 3.844596 1.587962 2.834294 -12.794673 -10.441653 -97.531632 -66.742180 146.607404 9.170366 12.207322 -1.358134 -9.091356 -1.117755 -1.062788 -10.841321 -8.616272 14.903362 64.238137 -62.120017 -110.631424 -3.355943 -12.736914 23.467062 -6.440532 -22.973962 -11.372530 -14.208338 78.889357 -15.759970 9.813790 -15.727216 3.726047 0.003382 -0.003374 0.001498 3.958423 5.015012 -2.232359 129.578003 64.872182 147.787657 10.519937 11.078433 3.999417 0.003923 -0.019144 0.001737
-13.237415 126.912444 30.482179 -159.912651 -50.030103 -2.877857 -4.028526 26.556556 -1.127485 -0.616610 4.559359 -0.056989 -1.003643 7.203156 -0.109205 -3.187213 21.739340 -0.752688 -3.615873 17.668302 -0.183569 -3.874488 -6.985335 0.675433 1.275387 3.738746 1.591528 2.828109 -12.721768 -10.381556 -97.343469 -66.730388 146.440293 9.145762 12.232480 -1.569318 -9.158679 -1.192587 -0.990900 -10.808707 -8.591163 14.857391 64.223956 -62.155415 -110.622413 -3.322435 -12.612120 23.495350 -6.444597 -22.974861 -11.367167 -14.219044 78.894631 -15.768926 9.809565 -15.730185 3.722850 0.003758 -0.002931 0.001665 3.957788 5.015391 -2.228871 129.580612 64.873395 147.787184 10.536910 11.103660 3.952929 0.002243 -0.015530 0.000994
